<mxfile host="app.diagrams.net" modified="2023-06-01T01:16:15.033Z" agent="Mozilla/5.0 (Macintosh; Intel Mac OS X 10_15_7) AppleWebKit/537.36 (KHTML, like Gecko) Chrome/112.0.0.0 Safari/537.36" version="21.3.6" etag="fm5UPPsczw1T1T-uuZ-l" type="github">
  <diagram name="第 1 页" id="KYaSVATMN0pzb5_Wx1z8">
    <mxGraphModel>
      <root>
        <mxCell id="0" />
        <mxCell id="1" parent="0" />
      </root>
    </mxGraphModel>
  </diagram>
</mxfile>
